<?xml version="1.0" encoding="UTF-8" standalone="no"?>
<!DOCTYPE svg PUBLIC "-//W3C//DTD SVG 1.1//EN"
 "http://www.w3.org/Graphics/SVG/1.1/DTD/svg11.dtd">
<!-- Generated by graphviz version 2.43.0 (0)
 -->
<!-- Title: G Pages: 1 -->
<svg width="2291pt" height="498pt"
 viewBox="0.00 0.00 2290.52 498.00" xmlns="http://www.w3.org/2000/svg" xmlns:xlink="http://www.w3.org/1999/xlink">
<g id="graph0" class="graph" transform="scale(1 1) rotate(0) translate(4 494)">
<title>G</title>
<polygon fill="white" stroke="transparent" points="-4,4 -4,-494 2286.52,-494 2286.52,4 -4,4"/>
<g id="clust1" class="cluster">
<title>cluster_G</title>
<path fill="#808080" fill-opacity="0.094118" stroke="black" d="M20,-8C20,-8 2262.52,-8 2262.52,-8 2268.52,-8 2274.52,-14 2274.52,-20 2274.52,-20 2274.52,-470 2274.52,-470 2274.52,-476 2268.52,-482 2262.52,-482 2262.52,-482 20,-482 20,-482 14,-482 8,-476 8,-470 8,-470 8,-20 8,-20 8,-14 14,-8 20,-8"/>
</g>
<g id="clust2" class="cluster">
<title>cluster_compare_yields__compare_yields</title>
<path fill="#808080" fill-opacity="0.094118" stroke="black" d="M28,-16C28,-16 1305.7,-16 1305.7,-16 1311.7,-16 1317.7,-22 1317.7,-28 1317.7,-28 1317.7,-349 1317.7,-349 1317.7,-355 1311.7,-361 1305.7,-361 1305.7,-361 28,-361 28,-361 22,-361 16,-355 16,-349 16,-349 16,-28 16,-28 16,-22 22,-16 28,-16"/>
<text text-anchor="middle" x="666.85" y="-345.8" font-family="Times,serif" font-size="14.00">compare_yields.compare_yields</text>
</g>
<g id="clust3" class="cluster">
<title>cluster_compare_yields__data_loader</title>
<path fill="#808080" fill-opacity="0.094118" stroke="black" d="M1349.7,-348C1349.7,-348 2254.52,-348 2254.52,-348 2260.52,-348 2266.52,-354 2266.52,-360 2266.52,-360 2266.52,-462 2266.52,-462 2266.52,-468 2260.52,-474 2254.52,-474 2254.52,-474 1349.7,-474 1349.7,-474 1343.7,-474 1337.7,-468 1337.7,-462 1337.7,-462 1337.7,-360 1337.7,-360 1337.7,-354 1343.7,-348 1349.7,-348"/>
<text text-anchor="middle" x="1802.11" y="-458.8" font-family="Times,serif" font-size="14.00">compare_yields.data_loader</text>
</g>
<g id="clust4" class="cluster">
<title>cluster_compare_yields__data_loader__DataLoader</title>
<path fill="#808080" fill-opacity="0.094118" stroke="black" d="M1515.68,-368C1515.68,-368 2246.52,-368 2246.52,-368 2252.52,-368 2258.52,-374 2258.52,-380 2258.52,-380 2258.52,-431 2258.52,-431 2258.52,-437 2252.52,-443 2246.52,-443 2246.52,-443 1515.68,-443 1515.68,-443 1509.68,-443 1503.68,-437 1503.68,-431 1503.68,-431 1503.68,-380 1503.68,-380 1503.68,-374 1509.68,-368 1515.68,-368"/>
<text text-anchor="middle" x="1881.1" y="-427.8" font-family="Times,serif" font-size="14.00">compare_yields.data_loader.DataLoader</text>
</g>
<g id="clust5" class="cluster">
<title>cluster_compare_yields__stats_functions</title>
<path fill="#808080" fill-opacity="0.094118" stroke="black" d="M1026.32,-369C1026.32,-369 1240.8,-369 1240.8,-369 1246.8,-369 1252.8,-375 1252.8,-381 1252.8,-381 1252.8,-432 1252.8,-432 1252.8,-438 1246.8,-444 1240.8,-444 1240.8,-444 1026.32,-444 1026.32,-444 1020.32,-444 1014.32,-438 1014.32,-432 1014.32,-432 1014.32,-381 1014.32,-381 1014.32,-375 1020.32,-369 1026.32,-369"/>
<text text-anchor="middle" x="1133.56" y="-428.8" font-family="Times,serif" font-size="14.00">compare_yields.stats_functions</text>
</g>
<!-- compare_yields__compare_yields__add_row_to_table -->
<g id="node1" class="node">
<title>compare_yields__compare_yields__add_row_to_table</title>
<ellipse fill="#ff9999" fill-opacity="0.698039" stroke="black" cx="758.29" cy="-96" rx="90.98" ry="18"/>
<text text-anchor="middle" x="758.29" y="-92.3" font-family="Times,serif" font-size="14.00" fill="#000000">add_row_to_table</text>
</g>
<!-- compare_yields__stats_functions__StatsFunctions -->
<g id="node15" class="node">
<title>compare_yields__stats_functions__StatsFunctions</title>
<ellipse fill="#99feff" fill-opacity="0.698039" stroke="black" cx="1133.56" cy="-395" rx="81.49" ry="18"/>
<text text-anchor="middle" x="1133.56" y="-391.3" font-family="Times,serif" font-size="14.00" fill="#000000">StatsFunctions</text>
</g>
<!-- compare_yields__compare_yields__add_row_to_table&#45;&gt;compare_yields__stats_functions__StatsFunctions -->
<g id="edge18" class="edge">
<title>compare_yields__compare_yields__add_row_to_table&#45;&gt;compare_yields__stats_functions__StatsFunctions</title>
<path fill="none" stroke="#000000" d="M846.36,-91.41C873.76,-94.51 901.92,-103.16 921.43,-123 997.65,-200.55 881.39,-287.27 957.43,-365 980.3,-388.38 1014.27,-397.54 1046.21,-400.25"/>
<polygon fill="#000000" stroke="#000000" points="1046.3,-403.76 1056.5,-400.91 1046.75,-396.77 1046.3,-403.76"/>
</g>
<!-- compare_yields__compare_yields__check_catastrophe_and_or_control -->
<g id="node2" class="node">
<title>compare_yields__compare_yields__check_catastrophe_and_or_control</title>
<ellipse fill="#ff9999" fill-opacity="0.698039" stroke="black" cx="390.17" cy="-150" rx="168.97" ry="18"/>
<text text-anchor="middle" x="390.17" y="-146.3" font-family="Times,serif" font-size="14.00" fill="#000000">check_catastrophe_and_or_control</text>
</g>
<!-- compare_yields__compare_yields__compare_yields_with_model_by_cell -->
<g id="node3" class="node">
<title>compare_yields__compare_yields__compare_yields_with_model_by_cell</title>
<ellipse fill="#ff9999" fill-opacity="0.698039" stroke="black" cx="1133.56" cy="-42" rx="176.27" ry="18"/>
<text text-anchor="middle" x="1133.56" y="-38.3" font-family="Times,serif" font-size="14.00" fill="#000000">compare_yields_with_model_by_cell</text>
</g>
<!-- compare_yields__data_loader__DataLoader -->
<g id="node11" class="node">
<title>compare_yields__data_loader__DataLoader</title>
<ellipse fill="#ccff99" fill-opacity="0.698039" stroke="black" cx="1410.69" cy="-394" rx="64.99" ry="18"/>
<text text-anchor="middle" x="1410.69" y="-390.3" font-family="Times,serif" font-size="14.00" fill="#000000">DataLoader</text>
</g>
<!-- compare_yields__compare_yields__compare_yields_with_model_by_cell&#45;&gt;compare_yields__data_loader__DataLoader -->
<g id="edge17" class="edge">
<title>compare_yields__compare_yields__compare_yields_with_model_by_cell&#45;&gt;compare_yields__data_loader__DataLoader</title>
<path fill="none" stroke="#000000" d="M1148.58,-59.94C1193.84,-117.85 1336.19,-299.96 1389.38,-368.01"/>
<polygon fill="#000000" stroke="#000000" points="1386.78,-370.37 1395.7,-376.1 1392.3,-366.06 1386.78,-370.37"/>
</g>
<!-- compare_yields__compare_yields__display_results -->
<g id="node4" class="node">
<title>compare_yields__compare_yields__display_results</title>
<ellipse fill="#ff9999" fill-opacity="0.698039" stroke="black" cx="104.59" cy="-204" rx="80.69" ry="18"/>
<text text-anchor="middle" x="104.59" y="-200.3" font-family="Times,serif" font-size="14.00" fill="#000000">display_results</text>
</g>
<!-- compare_yields__compare_yields__display_results&#45;&gt;compare_yields__compare_yields__check_catastrophe_and_or_control -->
<g id="edge8" class="edge">
<title>compare_yields__compare_yields__display_results&#45;&gt;compare_yields__compare_yields__check_catastrophe_and_or_control</title>
<path fill="none" stroke="#000000" d="M159.24,-190.65C178.68,-186.02 200.86,-181 221.19,-177 240.4,-173.22 260.93,-169.58 280.8,-166.27"/>
<polygon fill="#000000" stroke="#000000" points="281.51,-169.7 290.81,-164.62 280.37,-162.8 281.51,-169.7"/>
</g>
<!-- compare_yields__compare_yields__show_comparisons_overall -->
<g id="node10" class="node">
<title>compare_yields__compare_yields__show_comparisons_overall</title>
<ellipse fill="#ff9999" fill-opacity="0.698039" stroke="black" cx="390.17" cy="-204" rx="133.78" ry="18"/>
<text text-anchor="middle" x="390.17" y="-200.3" font-family="Times,serif" font-size="14.00" fill="#000000">show_comparisons_overall</text>
</g>
<!-- compare_yields__compare_yields__display_results&#45;&gt;compare_yields__compare_yields__show_comparisons_overall -->
<g id="edge6" class="edge">
<title>compare_yields__compare_yields__display_results&#45;&gt;compare_yields__compare_yields__show_comparisons_overall</title>
<path fill="none" stroke="#000000" d="M185.34,-204C204.27,-204 225.05,-204 245.87,-204"/>
<polygon fill="#000000" stroke="#000000" points="246.08,-207.5 256.08,-204 246.08,-200.5 246.08,-207.5"/>
</g>
<!-- compare_yields__compare_yields__display_results&#45;&gt;compare_yields__data_loader__DataLoader -->
<g id="edge7" class="edge">
<title>compare_yields__compare_yields__display_results&#45;&gt;compare_yields__data_loader__DataLoader</title>
<path fill="none" stroke="#000000" d="M143.73,-219.87C261.91,-268.07 633.53,-412.38 957.43,-460 1115.84,-483.29 1165.27,-509.02 1317.7,-460 1343.33,-451.75 1367.88,-433.43 1385.16,-418.18"/>
<polygon fill="#000000" stroke="#000000" points="1387.53,-420.75 1392.57,-411.43 1382.82,-415.58 1387.53,-420.75"/>
</g>
<!-- compare_yields__compare_yields__handle_cell_by_cell_scatter_plots -->
<g id="node5" class="node">
<title>compare_yields__compare_yields__handle_cell_by_cell_scatter_plots</title>
<ellipse fill="#ff9999" fill-opacity="0.698039" stroke="black" cx="758.29" cy="-42" rx="163.27" ry="18"/>
<text text-anchor="middle" x="758.29" y="-38.3" font-family="Times,serif" font-size="14.00" fill="#000000">handle_cell_by_cell_scatter_plots</text>
</g>
<!-- compare_yields__compare_yields__handle_cell_by_cell_scatter_plots&#45;&gt;compare_yields__compare_yields__compare_yields_with_model_by_cell -->
<g id="edge16" class="edge">
<title>compare_yields__compare_yields__handle_cell_by_cell_scatter_plots&#45;&gt;compare_yields__compare_yields__compare_yields_with_model_by_cell</title>
<path fill="none" stroke="#000000" d="M921.66,-42C930.13,-42 938.68,-42 947.22,-42"/>
<polygon fill="#000000" stroke="#000000" points="947.25,-45.5 957.25,-42 947.25,-38.5 947.25,-45.5"/>
</g>
<!-- compare_yields__compare_yields__handle_country_scatter_plots -->
<g id="node6" class="node">
<title>compare_yields__compare_yields__handle_country_scatter_plots</title>
<ellipse fill="#ff9999" fill-opacity="0.698039" stroke="black" cx="758.29" cy="-150" rx="146.47" ry="18"/>
<text text-anchor="middle" x="758.29" y="-146.3" font-family="Times,serif" font-size="14.00" fill="#000000">handle_country_scatter_plots</text>
</g>
<!-- compare_yields__compare_yields__handle_country_scatter_plots&#45;&gt;compare_yields__data_loader__DataLoader -->
<g id="edge15" class="edge">
<title>compare_yields__compare_yields__handle_country_scatter_plots&#45;&gt;compare_yields__data_loader__DataLoader</title>
<path fill="none" stroke="#000000" d="M892.68,-157.18C903.37,-162.03 913.19,-168.49 921.43,-177 1005.92,-264.32 866.03,-367.94 957.43,-448 987.54,-474.38 1279.07,-458.5 1317.7,-448 1340.07,-441.92 1362.56,-428.87 1379.7,-417.13"/>
<polygon fill="#000000" stroke="#000000" points="1382.01,-419.78 1388.15,-411.15 1377.96,-414.07 1382.01,-419.78"/>
</g>
<!-- compare_yields__compare_yields__plot_SPAM_country_map -->
<g id="node7" class="node">
<title>compare_yields__compare_yields__plot_SPAM_country_map</title>
<ellipse fill="#ff9999" fill-opacity="0.698039" stroke="black" cx="758.29" cy="-204" rx="125.38" ry="18"/>
<text text-anchor="middle" x="758.29" y="-200.3" font-family="Times,serif" font-size="14.00" fill="#000000">plot_SPAM_country_map</text>
</g>
<!-- compare_yields__compare_yields__plot_histograms -->
<g id="node8" class="node">
<title>compare_yields__compare_yields__plot_histograms</title>
<ellipse fill="#ff9999" fill-opacity="0.698039" stroke="black" cx="758.29" cy="-258" rx="85.29" ry="18"/>
<text text-anchor="middle" x="758.29" y="-254.3" font-family="Times,serif" font-size="14.00" fill="#000000">plot_histograms</text>
</g>
<!-- compare_yields__compare_yields__plot_model_country_map_func -->
<g id="node9" class="node">
<title>compare_yields__compare_yields__plot_model_country_map_func</title>
<ellipse fill="#ff9999" fill-opacity="0.698039" stroke="black" cx="758.29" cy="-312" rx="150.27" ry="18"/>
<text text-anchor="middle" x="758.29" y="-308.3" font-family="Times,serif" font-size="14.00" fill="#000000">plot_model_country_map_func</text>
</g>
<!-- compare_yields__compare_yields__show_comparisons_overall&#45;&gt;compare_yields__compare_yields__add_row_to_table -->
<g id="edge14" class="edge">
<title>compare_yields__compare_yields__show_comparisons_overall&#45;&gt;compare_yields__compare_yields__add_row_to_table</title>
<path fill="none" stroke="#000000" d="M513.08,-196.68C529.37,-192.26 545.24,-185.94 559.16,-177 583.42,-161.41 570.93,-138.66 595.16,-123 613.65,-111.04 635.73,-103.84 657.55,-99.61"/>
<polygon fill="#000000" stroke="#000000" points="658.3,-103.04 667.55,-97.88 657.1,-96.14 658.3,-103.04"/>
</g>
<!-- compare_yields__compare_yields__show_comparisons_overall&#45;&gt;compare_yields__compare_yields__handle_cell_by_cell_scatter_plots -->
<g id="edge13" class="edge">
<title>compare_yields__compare_yields__show_comparisons_overall&#45;&gt;compare_yields__compare_yields__handle_cell_by_cell_scatter_plots</title>
<path fill="none" stroke="#000000" d="M518.88,-198.83C533.57,-193.96 547.45,-186.94 559.16,-177 597.72,-144.24 556.69,-101.87 595.16,-69 600.82,-64.16 607.02,-60.02 613.59,-56.5"/>
<polygon fill="#000000" stroke="#000000" points="615.27,-59.57 622.75,-52.07 612.22,-53.27 615.27,-59.57"/>
</g>
<!-- compare_yields__compare_yields__show_comparisons_overall&#45;&gt;compare_yields__compare_yields__handle_country_scatter_plots -->
<g id="edge9" class="edge">
<title>compare_yields__compare_yields__show_comparisons_overall&#45;&gt;compare_yields__compare_yields__handle_country_scatter_plots</title>
<path fill="none" stroke="#000000" d="M481.2,-190.72C533.43,-183.02 599.4,-173.29 653.77,-165.27"/>
<polygon fill="#000000" stroke="#000000" points="654.39,-168.71 663.78,-163.79 653.37,-161.79 654.39,-168.71"/>
</g>
<!-- compare_yields__compare_yields__show_comparisons_overall&#45;&gt;compare_yields__compare_yields__plot_SPAM_country_map -->
<g id="edge10" class="edge">
<title>compare_yields__compare_yields__show_comparisons_overall&#45;&gt;compare_yields__compare_yields__plot_SPAM_country_map</title>
<path fill="none" stroke="#000000" d="M524.13,-204C556.15,-204 590.39,-204 622.5,-204"/>
<polygon fill="#000000" stroke="#000000" points="622.84,-207.5 632.84,-204 622.84,-200.5 622.84,-207.5"/>
</g>
<!-- compare_yields__compare_yields__show_comparisons_overall&#45;&gt;compare_yields__compare_yields__plot_histograms -->
<g id="edge12" class="edge">
<title>compare_yields__compare_yields__show_comparisons_overall&#45;&gt;compare_yields__compare_yields__plot_histograms</title>
<path fill="none" stroke="#000000" d="M481.2,-217.28C541.42,-226.16 619.94,-237.74 677.84,-246.28"/>
<polygon fill="#000000" stroke="#000000" points="677.63,-249.79 688.03,-247.78 678.65,-242.86 677.63,-249.79"/>
</g>
<!-- compare_yields__compare_yields__show_comparisons_overall&#45;&gt;compare_yields__compare_yields__plot_model_country_map_func -->
<g id="edge11" class="edge">
<title>compare_yields__compare_yields__show_comparisons_overall&#45;&gt;compare_yields__compare_yields__plot_model_country_map_func</title>
<path fill="none" stroke="#000000" d="M427.94,-221.37C468.17,-239.71 534.95,-268.24 595.16,-285 611.59,-289.57 629.18,-293.48 646.51,-296.79"/>
<polygon fill="#000000" stroke="#000000" points="646.19,-300.29 656.66,-298.67 647.47,-293.41 646.19,-300.29"/>
</g>
<!-- compare_yields__data_loader__DataLoader__extract_coordinate -->
<g id="node12" class="node">
<title>compare_yields__data_loader__DataLoader__extract_coordinate</title>
<ellipse fill="#b2ff65" fill-opacity="0.698039" stroke="black" cx="2153.03" cy="-394" rx="97.48" ry="18"/>
<text text-anchor="middle" x="2153.03" y="-390.3" font-family="Times,serif" font-size="14.00" fill="#000000">extract_coordinate</text>
</g>
<!-- compare_yields__data_loader__DataLoader&#45;&gt;compare_yields__data_loader__DataLoader__extract_coordinate -->
<g id="edge3" class="edge">
<title>compare_yields__data_loader__DataLoader&#45;&gt;compare_yields__data_loader__DataLoader__extract_coordinate</title>
<path fill="none" stroke="#838b8b" stroke-dasharray="5,2" d="M1450.99,-379.78C1467.09,-374.67 1486.06,-369.53 1503.68,-367 1730.62,-334.39 1791.43,-343.99 2019.54,-367 2040.72,-369.14 2063.51,-373.15 2084.12,-377.43"/>
<polygon fill="#838b8b" stroke="#838b8b" points="2083.54,-380.89 2094.05,-379.55 2085,-374.04 2083.54,-380.89"/>
</g>
<!-- compare_yields__data_loader__DataLoader__get_average_of_rasters_over_time -->
<g id="node13" class="node">
<title>compare_yields__data_loader__DataLoader__get_average_of_rasters_over_time</title>
<ellipse fill="#b2ff65" fill-opacity="0.698039" stroke="black" cx="1680.02" cy="-394" rx="168.17" ry="18"/>
<text text-anchor="middle" x="1680.02" y="-390.3" font-family="Times,serif" font-size="14.00" fill="#000000">get_average_of_rasters_over_time</text>
</g>
<!-- compare_yields__data_loader__DataLoader&#45;&gt;compare_yields__data_loader__DataLoader__get_average_of_rasters_over_time -->
<g id="edge1" class="edge">
<title>compare_yields__data_loader__DataLoader&#45;&gt;compare_yields__data_loader__DataLoader__get_average_of_rasters_over_time</title>
<path fill="none" stroke="#838b8b" stroke-dasharray="5,2" d="M1475.72,-394C1483.86,-394 1492.47,-394 1501.38,-394"/>
<polygon fill="#838b8b" stroke="#838b8b" points="1501.55,-397.5 1511.55,-394 1501.55,-390.5 1501.55,-397.5"/>
</g>
<!-- compare_yields__data_loader__DataLoader__import_ascii -->
<g id="node14" class="node">
<title>compare_yields__data_loader__DataLoader__import_ascii</title>
<ellipse fill="#b2ff65" fill-opacity="0.698039" stroke="black" cx="1951.95" cy="-394" rx="67.69" ry="18"/>
<text text-anchor="middle" x="1951.95" y="-390.3" font-family="Times,serif" font-size="14.00" fill="#000000">import_ascii</text>
</g>
<!-- compare_yields__data_loader__DataLoader&#45;&gt;compare_yields__data_loader__DataLoader__import_ascii -->
<g id="edge2" class="edge">
<title>compare_yields__data_loader__DataLoader&#45;&gt;compare_yields__data_loader__DataLoader__import_ascii</title>
<path fill="none" stroke="#838b8b" stroke-dasharray="5,2" d="M1450.99,-408.22C1467.09,-413.33 1486.06,-418.47 1503.68,-421 1655.31,-442.79 1696.43,-440.66 1848.35,-421 1864.99,-418.85 1882.78,-414.81 1898.79,-410.5"/>
<polygon fill="#838b8b" stroke="#838b8b" points="1899.81,-413.85 1908.51,-407.79 1897.93,-407.1 1899.81,-413.85"/>
</g>
<!-- compare_yields__data_loader__DataLoader__get_average_of_rasters_over_time&#45;&gt;compare_yields__data_loader__DataLoader__import_ascii -->
<g id="edge4" class="edge">
<title>compare_yields__data_loader__DataLoader__get_average_of_rasters_over_time&#45;&gt;compare_yields__data_loader__DataLoader__import_ascii</title>
<path fill="none" stroke="#000000" d="M1848.51,-394C1857.29,-394 1865.86,-394 1874.08,-394"/>
<polygon fill="#000000" stroke="#000000" points="1874.29,-397.5 1884.29,-394 1874.29,-390.5 1874.29,-397.5"/>
</g>
<!-- compare_yields__data_loader__DataLoader__import_ascii&#45;&gt;compare_yields__data_loader__DataLoader__extract_coordinate -->
<g id="edge5" class="edge">
<title>compare_yields__data_loader__DataLoader__import_ascii&#45;&gt;compare_yields__data_loader__DataLoader__extract_coordinate</title>
<path fill="none" stroke="#000000" d="M2019.79,-394C2027.99,-394 2036.53,-394 2045.14,-394"/>
<polygon fill="#000000" stroke="#000000" points="2045.26,-397.5 2055.26,-394 2045.26,-390.5 2045.26,-397.5"/>
</g>
</g>
</svg>
